<svg xmlns="http://www.w3.org/2000/svg" xmlns:xlink="http://www.w3.org/1999/xlink" width="500" zoomAndPan="magnify" viewBox="0 0 375 374.999991" height="500" preserveAspectRatio="xMidYMid meet" version="1.2"><defs><clipPath id="32332985d4"><path d="M 262 48.761719 L 322 48.761719 L 322 108 L 262 108 Z M 262 48.761719 "/></clipPath><clipPath id="54abc9b009"><path d="M 11.042969 152 L 137 152 L 137 269 L 11.042969 269 Z M 11.042969 152 "/></clipPath><clipPath id="d819197945"><path d="M 39 248.320312 L 136.667969 248.320312 L 136.667969 326.257812 L 39 326.257812 Z M 39 248.320312 "/></clipPath><clipPath id="fa18e9b400"><path d="M 316 164.855469 L 364.292969 164.855469 L 364.292969 213 L 316 213 Z M 316 164.855469 "/></clipPath></defs><g id="c0d0905a14"><path style=" stroke:none;fill-rule:nonzero;fill:#6ecfe1;fill-opacity:1;" d="M 268.175781 128.390625 C 231.570312 130.609375 229.769531 132.40625 227.550781 168.984375 C 225.332031 132.40625 223.53125 130.609375 186.925781 128.390625 C 223.53125 126.175781 225.332031 124.378906 227.550781 87.800781 C 229.769531 124.378906 231.570312 126.175781 268.175781 128.390625 "/><g clip-rule="nonzero" clip-path="url(#32332985d4)"><path style=" stroke:none;fill-rule:nonzero;fill:#6ecfe1;fill-opacity:1;" d="M 321.484375 78.011719 C 295.105469 79.609375 293.808594 80.902344 292.210938 107.261719 C 290.609375 80.902344 289.3125 79.609375 262.933594 78.011719 C 289.3125 76.414062 290.609375 75.117188 292.210938 48.757812 C 293.808594 75.117188 295.105469 76.414062 321.484375 78.011719 "/></g><g clip-rule="nonzero" clip-path="url(#54abc9b009)"><path style=" stroke:none;fill-rule:nonzero;fill:#4bc1d8;fill-opacity:1;" d="M 40.257812 268.066406 C 22.703125 256.964844 11.046875 237.394531 11.046875 215.105469 C 11.046875 180.511719 39.113281 152.472656 73.734375 152.472656 C 88.8125 152.472656 102.648438 157.789062 113.460938 166.652344 C 114.425781 179.605469 122.324219 190.632812 133.460938 196.03125 C 135.382812 202.046875 136.421875 208.453125 136.421875 215.105469 C 136.421875 227.429688 132.859375 238.921875 126.703125 248.613281 C 117.84375 236.832031 103.742188 229.214844 87.855469 229.214844 C 64.347656 229.214844 44.742188 245.898438 40.257812 268.066406 "/></g><path style=" stroke:none;fill-rule:nonzero;fill:#6ecfe1;fill-opacity:1;" d="M 148.992188 199.582031 C 143.421875 199.582031 138.15625 198.308594 133.460938 196.03125 C 129.742188 184.390625 122.703125 174.226562 113.460938 166.652344 C 113.398438 165.773438 113.363281 164.882812 113.363281 163.988281 C 113.363281 144.328125 129.316406 128.390625 148.992188 128.390625 C 168.667969 128.390625 184.617188 144.328125 184.617188 163.988281 C 184.617188 183.644531 168.667969 199.582031 148.992188 199.582031 "/><path style=" stroke:none;fill-rule:nonzero;fill:#3b94c2;fill-opacity:1;" d="M 133.460938 196.03125 C 122.324219 190.632812 114.425781 179.605469 113.460938 166.652344 C 122.703125 174.226562 129.742188 184.390625 133.460938 196.03125 "/><path style=" stroke:none;fill-rule:nonzero;fill:#9adee7;fill-opacity:1;" d="M 92.761719 115 C 80.488281 115 70.539062 105.058594 70.539062 92.796875 C 70.539062 80.535156 80.488281 70.597656 92.761719 70.597656 C 105.035156 70.597656 114.980469 80.535156 114.980469 92.796875 C 114.980469 105.058594 105.035156 115 92.761719 115 "/><g clip-rule="nonzero" clip-path="url(#d819197945)"><path style=" stroke:none;fill-rule:nonzero;fill:#9adee7;fill-opacity:1;" d="M 87.855469 326.257812 C 61.035156 326.257812 39.292969 304.535156 39.292969 277.734375 C 39.292969 274.425781 39.625 271.1875 40.257812 268.066406 C 49.941406 274.191406 61.425781 277.734375 73.734375 277.734375 C 96.019531 277.734375 115.589844 266.117188 126.703125 248.613281 C 132.804688 256.722656 136.421875 266.808594 136.421875 277.734375 C 136.421875 304.535156 114.679688 326.257812 87.855469 326.257812 "/></g><path style=" stroke:none;fill-rule:nonzero;fill:#3fa0c5;fill-opacity:1;" d="M 73.734375 277.734375 C 61.425781 277.734375 49.941406 274.191406 40.257812 268.066406 C 44.742188 245.898438 64.347656 229.214844 87.855469 229.214844 C 103.742188 229.214844 117.84375 236.832031 126.703125 248.613281 C 115.589844 266.117188 96.019531 277.734375 73.734375 277.734375 "/><path style=" stroke:none;fill-rule:nonzero;fill:#9bddd5;fill-opacity:1;" d="M 170.605469 248.507812 C 159.9375 248.507812 151.292969 239.871094 151.292969 229.214844 C 151.292969 218.554688 159.9375 209.917969 170.605469 209.917969 C 181.269531 209.917969 189.917969 218.554688 189.917969 229.214844 C 189.917969 239.871094 181.269531 248.507812 170.605469 248.507812 "/><path style=" stroke:none;fill-rule:nonzero;fill:#b0e4de;fill-opacity:1;" d="M 313.015625 253.917969 C 304.625 253.917969 297.820312 247.121094 297.820312 238.738281 C 297.820312 230.355469 304.625 223.558594 313.015625 223.558594 C 321.40625 223.558594 328.207031 230.355469 328.207031 238.738281 C 328.207031 247.121094 321.40625 253.917969 313.015625 253.917969 "/><g clip-rule="nonzero" clip-path="url(#fa18e9b400)"><path style=" stroke:none;fill-rule:nonzero;fill:#6ecfe1;fill-opacity:1;" d="M 340.269531 212.960938 C 326.996094 212.960938 316.238281 202.210938 316.238281 188.949219 C 316.238281 175.691406 326.996094 164.941406 340.269531 164.941406 C 353.539062 164.941406 364.296875 175.691406 364.296875 188.949219 C 364.296875 202.210938 353.539062 212.960938 340.269531 212.960938 "/></g></g></svg>